<svg id="Layer_1" data-name="Layer 1" xmlns="http://www.w3.org/2000/svg" viewBox="0 0 36.66 36.66"><defs><style>.cls-1{fill:#fff;}</style></defs><title>insta_icon</title><path id="Instagram" class="cls-1" d="M64.05,32.18H36.11a4.35,4.35,0,0,0-4.36,4.35v28a4.35,4.35,0,0,0,4.36,4.35H64.05a4.35,4.35,0,0,0,4.36-4.35v-28A4.35,4.35,0,0,0,64.05,32.18Zm-6,5.73a1.15,1.15,0,0,1,1.15-1.15h3.44a1.15,1.15,0,0,1,1.15,1.15v3.44a1.15,1.15,0,0,1-1.15,1.15H59.24a1.15,1.15,0,0,1-1.15-1.15V37.9Zm-8,5.61a7,7,0,1,1-7,7A7,7,0,0,1,50.12,43.52ZM65,64.26a1.15,1.15,0,0,1-1.15,1.15H36.33a1.15,1.15,0,0,1-1.15-1.15V47.07h4.58a7,7,0,0,0-.8,3.48,11.15,11.15,0,0,0,22.31,0,5.87,5.87,0,0,0-.88-3.48H65V64.26Z" transform="translate(-31.75 -32.18)"/></svg>