<svg id="Layer_1" data-name="Layer 1" xmlns="http://www.w3.org/2000/svg" viewBox="0 0 36.89 33.54"><defs><style>.cls-1{fill:#fff;}</style></defs><title>linkedin_icon</title><g id="LinkedIn"><rect class="cls-1" x="0.93" y="10.75" width="7.19" height="22.78"/><path class="cls-1" d="M60.11,44.65c-4.12,0-6.7,2.23-7.18,3.79V44.87H44.85c0.1,1.9,0,22.78,0,22.78h8.08V55.32a5.19,5.19,0,0,1,.18-1.86A4.11,4.11,0,0,1,57,50.67c2.8,0,4.08,2.11,4.08,5.19V67.65h8.15V55C69.23,47.92,65.22,44.65,60.11,44.65Z" transform="translate(-32.34 -34.11)"/><path class="cls-1" d="M36.74,34.11c-2.65,0-4.39,1.71-4.39,4A4,4,0,0,0,36.63,42h0.05c2.7,0,4.39-1.75,4.39-4A4,4,0,0,0,36.74,34.11Z" transform="translate(-32.34 -34.11)"/></g></svg>